<?xml version="1.0" standalone="no"?>
<!DOCTYPE svg PUBLIC "-//W3C//DTD SVG 20010904//EN"
 "http://www.w3.org/TR/2001/REC-SVG-20010904/DTD/svg10.dtd">
<svg version="1.0" xmlns="http://www.w3.org/2000/svg"
 width="2543.000000pt" height="2543.000000pt" viewBox="0 0 2543.000000 2543.000000"
 preserveAspectRatio="xMidYMid meet">
<metadata>
Created by potrace 1.14, written by Peter Selinger 2001-2017
</metadata>
<g transform="translate(0.000000,2543.000000) scale(0.100000,-0.100000)"
fill="#000000" stroke="none">
<path d="M7268 18990 c-11 -19 -29 -49 -39 -67 -10 -17 -69 -120 -132 -230
-63 -109 -124 -214 -134 -233 -11 -19 -43 -74 -72 -122 -28 -48 -51 -89 -51
-93 0 -3 -8 -18 -19 -33 -32 -47 -121 -202 -121 -211 0 -5 -3 -11 -7 -13 -5
-1 -15 -16 -24 -33 -14 -28 -73 -130 -282 -492 -42 -72 -85 -147 -96 -165 -10
-18 -43 -76 -73 -128 -138 -239 -434 -750 -463 -800 -18 -30 -42 -71 -52 -90
-11 -19 -46 -80 -78 -135 -32 -55 -117 -203 -190 -330 -73 -126 -142 -246
-154 -265 -11 -19 -24 -42 -28 -50 -3 -8 -21 -39 -40 -68 -18 -29 -33 -54 -33
-57 0 -2 -36 -65 -80 -141 -44 -75 -80 -137 -80 -139 0 -1 -24 -42 -53 -91
-29 -49 -67 -114 -84 -144 -17 -30 -71 -125 -120 -210 -176 -304 -286 -496
-311 -540 -13 -25 -30 -52 -36 -60 -6 -8 -16 -24 -22 -35 -25 -46 -67 -119
-154 -270 -52 -88 -104 -178 -117 -200 -12 -22 -26 -47 -30 -55 -4 -8 -39 -69
-78 -135 -39 -66 -85 -145 -102 -175 -17 -30 -97 -170 -178 -310 -82 -140
-158 -273 -171 -295 -20 -37 -55 -97 -219 -380 -32 -55 -108 -188 -170 -295
-62 -107 -136 -235 -165 -285 -29 -49 -64 -110 -77 -135 -14 -25 -49 -85 -78
-135 -29 -49 -92 -157 -139 -240 -48 -82 -90 -157 -95 -165 -5 -8 -56 -96
-113 -194 -57 -99 -115 -200 -130 -225 -15 -25 -31 -52 -34 -59 -7 -14 -85
-150 -269 -467 -54 -93 -108 -186 -119 -206 -18 -32 -72 -126 -175 -303 -13
-23 -48 -84 -78 -136 -31 -52 -64 -110 -74 -127 -35 -61 -56 -97 -183 -317
-69 -120 -126 -220 -126 -221 0 -2 -22 -40 -50 -85 -27 -45 -50 -83 -50 -84 0
-2 -46 -82 -101 -177 -56 -96 -112 -192 -124 -214 -63 -111 -236 -412 -245
-425 -5 -8 -22 -37 -36 -65 -15 -27 -29 -52 -33 -55 -5 -4 -17 -26 -65 -115
-6 -11 -16 -27 -22 -35 -6 -8 -23 -35 -36 -60 -36 -65 -50 -89 -198 -345 -73
-126 -175 -302 -225 -390 -51 -88 -102 -177 -115 -198 l-22 -37 2403 2 2404 3
168 290 c92 160 171 297 175 305 4 8 32 58 63 110 31 52 136 235 234 405 98
171 214 370 257 443 43 73 78 136 78 138 0 3 16 30 35 60 19 30 35 56 35 59 0
2 29 53 63 112 35 59 108 185 162 278 53 94 121 211 150 260 61 104 423 733
452 785 11 19 34 58 50 86 17 27 42 70 55 95 75 131 150 262 165 287 27 45 75
127 201 347 64 110 155 268 204 352 93 160 116 201 156 273 13 25 28 50 32 55
6 8 123 210 217 375 27 46 291 504 433 750 114 195 272 470 315 545 12 22 82
144 155 270 73 127 141 244 151 262 10 17 29 49 42 70 13 21 27 45 30 53 4 8
17 31 28 50 12 19 156 269 321 555 336 582 394 683 408 705 5 8 22 39 37 68
15 28 31 52 35 52 4 0 8 5 8 10 0 6 75 139 167 298 91 158 180 312 196 342 16
30 33 60 38 65 4 6 23 37 42 70 19 33 53 92 75 132 23 39 50 87 61 105 10 18
78 137 151 263 73 127 155 268 182 315 26 47 53 92 58 100 5 8 22 38 38 65 16
28 38 66 49 85 24 42 169 292 193 335 9 17 30 53 47 80 16 28 32 57 36 65 5 8
13 24 20 35 37 61 87 147 87 150 0 1 17 32 38 66 22 35 50 84 64 109 41 72
139 243 153 265 7 11 13 25 15 30 1 6 10 21 20 35 9 14 51 84 92 155 130 225
420 729 438 760 9 17 38 65 63 108 25 42 45 78 44 78 -1 1 -1081 2 -2400 3
l-2398 1 -21 -35z"/>
<path d="M13330 19020 c-6 -4 -46 -72 -118 -200 -13 -25 -28 -49 -32 -55 -4
-5 -19 -30 -32 -55 -14 -25 -54 -95 -90 -156 -36 -61 -68 -117 -71 -125 -4 -8
-17 -30 -28 -49 -12 -19 -91 -156 -177 -305 -85 -148 -165 -286 -177 -305 -13
-19 -36 -60 -53 -90 -16 -30 -46 -82 -65 -115 -19 -33 -60 -105 -92 -160 -31
-55 -60 -104 -64 -110 -5 -5 -22 -35 -38 -65 -51 -93 -75 -134 -94 -162 -11
-14 -19 -28 -19 -30 0 -3 -32 -60 -72 -129 -79 -137 -86 -150 -248 -429 -62
-107 -122 -211 -132 -230 -33 -59 -136 -239 -178 -310 -33 -56 -533 -921 -593
-1025 -22 -38 -77 -133 -122 -210 -44 -77 -84 -147 -88 -155 -4 -8 -15 -28
-26 -45 -71 -117 -241 -416 -241 -424 0 -6 -4 -11 -10 -11 -5 0 -10 -4 -10 -9
0 -4 -70 -129 -155 -276 -85 -147 -155 -269 -155 -273 0 -3 -6 -13 -14 -21 -8
-9 -26 -38 -40 -66 -15 -27 -31 -57 -37 -65 -5 -8 -47 -80 -92 -160 -46 -80
-128 -221 -182 -315 -91 -157 -336 -581 -375 -650 -10 -16 -68 -118 -130 -225
-62 -107 -163 -283 -225 -390 -61 -107 -138 -240 -170 -295 -32 -55 -66 -113
-74 -130 -9 -16 -18 -32 -21 -35 -3 -3 -38 -61 -77 -130 -39 -69 -113 -197
-164 -285 -144 -249 -208 -361 -441 -765 -27 -47 -57 -98 -67 -115 -10 -16
-29 -50 -43 -75 -38 -67 -203 -353 -257 -445 -26 -44 -50 -87 -54 -95 -4 -8
-15 -28 -25 -45 -78 -127 -582 -1006 -582 -1014 0 -5 -4 -11 -8 -13 -5 -1 -22
-28 -39 -58 -30 -54 -154 -271 -172 -300 -5 -8 -52 -89 -104 -180 -53 -91
-134 -232 -182 -315 -48 -82 -97 -168 -110 -190 -50 -88 -196 -341 -205 -355
-5 -8 -21 -37 -36 -65 -14 -27 -32 -57 -40 -66 -8 -8 -14 -18 -14 -21 0 -6
-60 -110 -112 -195 l-20 -33 2404 0 2404 0 23 42 c12 24 31 59 43 78 31 53
169 291 188 325 10 17 126 219 260 450 134 231 251 435 262 453 10 18 53 93
95 165 42 73 110 191 150 262 41 72 78 135 82 140 5 6 22 35 38 65 17 30 97
170 178 310 81 140 214 370 295 510 80 140 196 341 257 445 60 105 121 210
135 235 14 25 107 186 207 358 99 172 191 332 205 355 26 46 170 295 261 452
32 55 90 156 130 225 39 69 97 168 127 220 30 52 66 115 80 140 14 25 99 171
188 325 235 406 431 747 444 772 6 13 14 23 19 23 4 0 7 4 7 9 0 6 55 106 123
223 338 583 427 740 427 748 0 4 3 10 8 12 6 2 94 152 203 344 42 75 58 102
103 177 25 43 46 80 46 82 0 2 18 33 40 69 22 36 40 68 40 71 0 2 15 28 33 57
19 29 37 60 40 68 16 37 143 243 151 244 4 1 18 -17 30 -39 31 -54 293 -510
441 -765 65 -113 184 -317 263 -455 79 -137 153 -265 163 -282 11 -18 29 -50
40 -70 12 -21 38 -67 59 -103 21 -36 47 -81 58 -100 11 -19 52 -91 92 -160 40
-69 84 -145 98 -170 13 -25 28 -49 32 -55 4 -5 19 -30 32 -55 14 -25 82 -142
150 -260 148 -255 354 -613 378 -655 10 -16 56 -97 104 -178 47 -82 86 -151
86 -153 0 -2 16 -28 35 -58 19 -30 35 -58 35 -61 0 -3 11 -22 24 -43 13 -20
76 -129 141 -242 65 -113 127 -217 137 -232 11 -16 16 -28 12 -28 -4 0 0 -8 8
-17 9 -10 17 -23 19 -28 2 -6 29 -52 59 -103 66 -112 65 -110 115 -197 22 -39
46 -82 55 -96 8 -14 37 -63 63 -110 26 -46 52 -91 57 -99 18 -29 421 -728 471
-816 9 -17 23 -42 31 -55 7 -13 18 -31 24 -39 7 -8 25 -40 41 -70 27 -51 128
-226 461 -800 69 -118 136 -235 150 -260 33 -59 344 -595 371 -640 11 -19 24
-42 28 -50 4 -8 20 -37 36 -65 17 -27 37 -63 47 -80 9 -16 65 -112 123 -213
59 -101 107 -185 107 -187 0 -1 18 -33 41 -70 39 -64 50 -84 100 -172 12 -21
32 -57 46 -80 l25 -43 2399 0 c1343 0 2399 4 2399 9 0 4 -9 20 -20 34 -11 14
-20 27 -20 30 0 3 -27 51 -60 107 -33 56 -60 103 -60 105 0 2 -57 100 -90 155
-27 44 -106 182 -133 230 -16 30 -33 60 -37 65 -4 6 -17 27 -29 48 -41 72 -59
105 -136 237 -43 74 -85 148 -95 164 -9 17 -31 54 -47 82 -17 27 -41 70 -55
95 -14 24 -67 116 -118 204 -51 88 -102 176 -113 195 -32 58 -243 422 -266
460 -11 19 -28 49 -37 65 -9 17 -66 116 -127 220 -61 105 -118 205 -129 223
-10 17 -26 47 -37 65 -10 17 -38 66 -61 107 -24 41 -105 182 -182 313 -76 131
-138 243 -138 248 0 5 -4 9 -10 9 -5 0 -10 5 -10 11 0 7 -14 35 -32 63 -32 53
-53 89 -96 166 -13 25 -28 50 -32 55 -4 6 -19 30 -32 55 -14 25 -76 132 -137
238 -61 106 -120 207 -130 225 -10 17 -60 104 -111 192 -51 88 -103 178 -116
201 -12 22 -68 118 -123 213 -56 95 -101 174 -101 177 0 2 -11 21 -23 42 -13
20 -151 258 -306 527 -156 270 -300 519 -321 555 -34 57 -304 525 -350 605 -9
17 -60 104 -112 195 -229 396 -322 558 -345 599 -14 24 -60 103 -102 175 -43
73 -81 138 -85 146 -4 8 -12 24 -19 35 -11 17 -114 198 -142 247 -71 127 -352
610 -366 630 -10 15 -19 29 -19 32 0 3 -36 66 -80 142 -44 75 -80 138 -80 140
0 3 -11 21 -23 42 -20 31 -121 205 -198 340 -38 66 -59 101 -166 287 -223 385
-336 581 -361 625 -13 25 -28 50 -32 55 -4 6 -19 30 -32 55 -22 40 -59 104
-118 205 -25 44 -170 295 -190 330 -93 162 -287 496 -324 558 -25 43 -46 81
-46 83 0 2 -11 23 -26 45 -14 22 -34 57 -46 77 -11 20 -43 77 -71 125 -29 49
-61 105 -73 125 -76 137 -298 519 -306 527 -9 10 -4792 15 -4808 5z"/>
<path d="M15711 12734 c-12 -19 -21 -37 -21 -39 0 -4 -41 -73 -78 -130 -6 -11
-15 -27 -19 -35 -4 -8 -34 -62 -68 -120 -68 -114 -285 -490 -321 -555 -23 -43
-202 -351 -289 -500 -29 -49 -69 -119 -89 -155 -20 -36 -41 -72 -46 -80 -6 -8
-57 -98 -116 -200 -58 -102 -120 -210 -138 -240 -18 -30 -70 -120 -116 -200
-46 -80 -107 -185 -135 -235 -134 -230 -275 -473 -293 -505 -11 -19 -36 -64
-57 -100 -21 -36 -48 -83 -60 -105 -13 -22 -60 -102 -104 -179 -45 -76 -81
-140 -81 -142 0 -2 -25 -44 -55 -94 -30 -50 -55 -92 -55 -94 0 -2 -36 -66 -81
-142 -44 -77 -91 -157 -104 -179 -47 -83 -363 -631 -383 -665 -23 -38 -63
-107 -107 -185 -69 -121 -266 -461 -275 -475 -6 -8 -13 -22 -17 -30 -4 -8 -24
-43 -45 -78 -21 -34 -38 -64 -38 -66 0 -2 -17 -33 -38 -67 -22 -35 -50 -84
-64 -109 -14 -25 -64 -112 -112 -193 -47 -82 -86 -150 -86 -152 0 -1 -24 -43
-54 -92 -76 -127 -108 -185 -103 -189 2 -2 1658 -3 3679 -2 l3676 3 -130 225
c-71 124 -151 261 -177 305 -26 44 -50 87 -54 95 -4 8 -15 29 -25 45 -17 27
-48 81 -227 390 -32 55 -69 120 -83 145 -14 25 -36 62 -49 82 -12 21 -23 39
-23 42 0 2 -36 65 -80 139 -44 75 -80 140 -80 146 0 6 -4 11 -9 11 -5 0 -11 8
-14 18 -4 9 -18 37 -33 62 -27 45 -46 77 -85 148 -69 121 -174 301 -190 324
-11 15 -19 30 -19 33 0 3 -21 40 -46 83 -25 42 -49 84 -53 92 -7 13 -58 102
-332 573 -41 70 -81 140 -89 155 -14 26 -75 131 -111 190 -9 15 -30 53 -48 86
-18 32 -47 82 -63 110 -17 28 -38 65 -48 81 -74 131 -412 716 -460 796 -33 55
-60 103 -60 106 0 3 -14 29 -32 57 -28 46 -166 284 -305 526 -29 52 -58 102
-63 110 -11 17 -96 165 -127 220 -11 19 -128 222 -260 450 -132 228 -253 439
-269 467 -16 29 -32 53 -36 53 -3 0 -15 -16 -27 -36z"/>
</g>
</svg>
